# xmcd
#
# Track frame offsets:
#  150
#  22493
#  34645
#  44410
#  60665
#  82870
#  107053
#  119248
#  139008
#  163784
#  176774
#  189444
#  201502
#  217507
#  236404
#  252637
#  270687
#  288107
#  303374
#  316009
#  327472
#
# Disc length: 4577 seconds
#
# Revision: 0
# Processed by: cddbd v1.4PL0 Copyright (c) Steve Scherf et al.
# Submitted via: AltoMP3_Maker 3.0
#
DISCID=3511df15
DTITLE=Bill Wyman - Monkey grip - Stone alone
DYEAR=1900
DGENRE=
TTITLE0=I Wanna Get A Gun
TTITLE1=Crazy Woman
TTITLE2=pussy
TTITLE3=Mighty fine time
TTITLE4=monkey Grip Glue
TTITLE5=What A Blow
TTITLE6=White lightnin'
TTITLE7=I'll Pull You Thro'
TTITLE8=It's A Wonder
TTITLE9=A Quarter To Three
TTITLE10=Gimme Just one Chance
TTITLE11=Soul Satisfying
TTITLE12=Apache Woman
TTITLE13=Every Sixty Seconds
TTITLE14=Get It on
TTITLE15=Feet
TTITLE16=Peanut Butter Time
TTITLE17=Wine And Wimmen
TTITLE18=If you Wanna Be Happy
TTITLE19=What's The Point
TTITLE20=No More Foolin'
EXTD=
EXTT0=
EXTT1=
EXTT2=
EXTT3=
EXTT4=
EXTT5=
EXTT6=
EXTT7=
EXTT8=
EXTT9=
EXTT10=
EXTT11=
EXTT12=
EXTT13=
EXTT14=
EXTT15=
EXTT16=
EXTT17=
EXTT18=
EXTT19=
EXTT20=
PLAYORDER=
